<?xml version="1.0" encoding="UTF-8"?><svg id="Layer_2" xmlns="http://www.w3.org/2000/svg" viewBox="0 0 319.06 335.03"><defs><style>.cls-1{fill:#fff;stroke-width:0px;}</style></defs><g id="Layer_1-2"><path class="cls-1" d="m194.41,163.75c7.48,5.71,15.26,10.73,21.94,16.94,13.01,12.09,20.53,27.41,23.63,44.86,1.64,9.19-5.39,18.21-14.69,19.07-.87.08-1.74.08-2.62.08-42.17,0-84.34.02-126.51-.01-10.05,0-17.76-7.14-17.42-16.53.15-4.17,1.2-8.4,2.44-12.42,6.89-22.3,20.7-38.93,41.41-49.77.55-.29,1.12-.56,1.65-.88.19-.12.31-.37.65-.8-9.01-10.83-12.32-23.33-9.54-37.23,2.23-11.16,7.8-20.47,16.78-27.53,17.25-13.55,42.3-12.16,57.9,2.92,14.65,14.15,21.34,40.59,4.37,61.29Zm-35.16,68.98c20.96,0,41.91.01,62.87,0,5.16,0,6.73-1.96,5.65-6.99-5.14-23.85-18.92-40.73-41.04-50.92-2.17-1-3.89-1.1-6.21.11-14.16,7.38-28.39,7.23-42.65-.02-1.39-.71-3.64-.85-5.04-.24-22.35,9.72-36.27,26.52-41.6,50.33-1.35,6.02.13,7.73,6.28,7.73,20.58,0,41.16,0,61.74,0Zm.19-64.42c18.62-.03,32.85-14.42,32.74-33.11-.11-18.62-14.17-32.77-32.63-32.84-18.62-.07-32.9,14.2-32.93,32.92-.03,18.72,14.22,33.06,32.83,33.03Z"/><path class="cls-1" d="m296.99,230.76c7.54-19.46,10.93-39.49,9.66-60.17-2.14-34.84-14.98-65.29-38.63-91.03-12.37-13.46-26.91-24.05-43.4-31.95-5.79-2.77-7.56-5.76-5.71-9.48,1.8-3.62,5.16-4.16,10.74-1.44,45.95,22.47,73.69,59.43,85.33,108.69,7.06,29.88,4.9,59.41-6.22,88.14-.76,1.97-.7,3.17.94,4.81,9.42,9.39,11,23.19,4.18,34.32-6.62,10.8-19.75,15.77-31.83,12.04-12.01-3.7-20.18-15.07-19.69-27.41.53-13.14,9.4-23.93,22.32-26.41,3.82-.73,7.9-.11,12.31-.11Zm-6.7,11.48c-8.63.03-15.59,7.06-15.6,15.78-.02,8.68,6.98,15.82,15.54,15.87,8.73.05,15.95-7.24,15.85-16-.1-8.64-7.2-15.68-15.79-15.65Z"/><path class="cls-1" d="m4.9,178.71C4.45,106.06,55.05,42.27,127,25.48c6.33-1.48,10.17-3.19,12.71-10.06,4.69-12.72,19.91-18.32,33.6-13.95,13.32,4.26,20.91,17.31,18.35,31.56-2.41,13.41-14.8,23.24-28.55,22.4-11.52-.7-19.67-6.55-24.28-17.07-1.02-2.33-1.97-2.76-4.41-2.28-61.53,12.12-108.02,61.34-116.2,123.63-1.15,8.72-.71,17.65-.97,26.49-.06,1.87.18,3.75,0,5.6-.34,3.51-2.62,5.73-5.81,5.61-3.31-.12-5.46-2-5.79-5.26-.46-4.46-.52-8.96-.75-13.44ZM164.21,11.79c-8.53.07-15.5,7.25-15.48,15.92.02,8.75,6.93,15.77,15.56,15.8,8.72.03,15.87-7.28,15.72-16.07-.15-8.69-7.26-15.73-15.8-15.66Z"/><path class="cls-1" d="m48.74,268.9c23.09,28.05,52.12,45.71,87.66,52.01,37.88,6.71,73.05-.8,105.36-21.68,4.08-2.64,7.08-2.58,9.37.1,2.58,3.02,1.58,7.01-2.51,9.71-15.1,9.99-31.31,17.7-49,21.52-62.15,13.43-114.71-3.49-157.26-50.86-2.36-2.62-3.98-3.56-7.65-2.49-12.82,3.74-26.33-2.79-32.08-14.95-5.65-11.95-1.99-26.31,8.68-34.08,10.9-7.93,25.74-7.05,35.39,2.11,9.78,9.28,11.58,23.93,4.32,35.2-.67,1.04-1.39,2.05-2.29,3.39Zm-20.82-34.16c-8.69-.03-15.87,6.94-15.95,15.47-.08,8.48,7.03,15.7,15.65,15.88,8.71.18,16.12-7.08,16.11-15.76,0-8.6-7.06-15.56-15.81-15.59Z"/></g></svg>